<?xml version="1.0" encoding="UTF-8" standalone="no"?>
<!DOCTYPE svg PUBLIC "-//W3C//DTD SVG 1.1//EN" "http://www.w3.org/Graphics/SVG/1.1/DTD/svg11.dtd">
<svg width="100%" height="100%" viewBox="0 0 392 207" version="1.1" xmlns="http://www.w3.org/2000/svg" xmlns:xlink="http://www.w3.org/1999/xlink" xml:space="preserve" xmlns:serif="http://www.serif.com/" style="fill-rule:evenodd;clip-rule:evenodd;stroke-linejoin:round;stroke-miterlimit:2;">
    <g transform="matrix(1,0,0,1,-3132.29,-76.6234)">
        <g transform="matrix(1,0,0,1,1885.99,0)">
            <g transform="matrix(1,0,0,1,-771.874,-1748.09)">
                <g transform="matrix(0.908772,0,0,0.908772,2018.17,1943.03)">
                    <path d="M0,93.769L0,0C0,-0.993 0.805,-1.799 1.799,-1.799L36.721,-1.799C46.828,-1.799 54.477,0.565 59.672,5.295C64.864,10.024 67.461,15.96 67.461,23.099C67.461,29.312 65.792,34.251 62.453,37.913C59.513,41.14 56.033,43.449 52.013,44.84C51.563,44.996 51.583,45.627 52.043,45.751C55.075,46.573 57.828,47.923 60.298,49.805C63.219,52.031 65.514,54.813 67.183,58.151C68.852,61.489 69.687,65.106 69.687,69.001C69.687,74.008 68.457,78.529 66.001,82.562C63.542,86.596 59.95,89.773 55.221,92.09C50.492,94.41 44.695,95.568 37.834,95.568L1.799,95.568C0.805,95.568 0,94.762 0,93.769M14.744,39.09C14.744,39.554 15.12,39.929 15.583,39.929L34.913,39.929C40.568,39.929 44.88,38.608 47.849,35.965C50.815,33.322 52.3,29.685 52.3,25.046C52.3,20.504 50.839,16.887 47.918,14.197C44.997,11.509 40.568,10.163 34.635,10.163L15.583,10.163C15.12,10.163 14.744,10.538 14.744,11.002L14.744,39.09ZM14.744,82.628C14.744,83.091 15.12,83.466 15.583,83.466L35.886,83.466C41.82,83.466 46.434,82.075 49.726,79.293C53.017,76.511 54.665,72.617 54.665,67.61C54.665,62.602 52.948,58.637 49.518,55.717C46.086,52.796 41.451,51.335 35.608,51.335L15.583,51.335C15.12,51.335 14.744,51.711 14.744,52.174L14.744,82.628Z" style="fill:rgb(54,76,160);fill-rule:nonzero;"/>
                </g>
                <g transform="matrix(0.908772,0,0,0.908772,2119.93,1965.66)">
                    <path d="M0,72.329C-6.77,72.329 -12.775,70.82 -18.013,67.809C-23.252,64.796 -27.356,60.6 -30.323,55.22C-33.292,49.844 -34.774,43.584 -34.774,36.442C-34.774,29.209 -33.313,22.859 -30.393,17.386C-27.472,11.916 -23.392,7.65 -18.152,4.59C-12.914,1.53 -6.816,0 0.139,0C6.907,0 12.797,1.507 17.805,4.52C22.812,7.535 26.706,11.545 29.488,16.551C32.27,21.559 33.661,27.078 33.661,33.104C33.661,34.032 33.637,35.03 33.592,36.094C33.554,36.943 33.502,37.863 33.436,38.856C33.407,39.297 33.04,39.642 32.599,39.642L-19.395,39.642C-19.886,39.642 -20.279,40.064 -20.233,40.553C-19.639,46.782 -17.462,51.555 -13.701,54.873C-9.761,58.35 -5.194,60.088 0,60.088C4.173,60.088 7.672,59.139 10.501,57.237C13.184,55.435 15.221,53.027 16.611,50.013C16.748,49.714 17.042,49.518 17.371,49.518L30.44,49.518C31.004,49.518 31.417,50.067 31.244,50.603C29.298,56.616 25.722,61.679 20.517,65.791C14.999,70.151 8.159,72.329 0,72.329M0,12.101C-4.916,12.101 -9.274,13.561 -13.074,16.482C-16.664,19.239 -18.929,23.295 -19.874,28.653C-19.964,29.161 -19.561,29.627 -19.045,29.627L18.016,29.627C18.503,29.627 18.897,29.212 18.855,28.727C18.419,23.772 16.538,19.806 13.214,16.83C9.689,13.679 5.286,12.101 0,12.101" style="fill:rgb(54,76,160);fill-rule:nonzero;"/>
                </g>
                <g transform="matrix(0.908772,0,0,0.908772,2188.69,1965.66)">
                    <path d="M0,72.329C-6.77,72.329 -12.775,70.82 -18.013,67.809C-23.252,64.796 -27.356,60.6 -30.323,55.22C-33.292,49.844 -34.774,43.584 -34.774,36.442C-34.774,29.209 -33.313,22.859 -30.393,17.386C-27.472,11.916 -23.392,7.65 -18.152,4.59C-12.914,1.53 -6.816,0 0.139,0C6.907,0 12.797,1.507 17.805,4.52C22.812,7.535 26.706,11.545 29.488,16.551C32.27,21.559 33.661,27.078 33.661,33.104C33.661,34.032 33.637,35.03 33.592,36.094C33.554,36.942 33.502,37.863 33.436,38.856C33.407,39.297 33.04,39.641 32.599,39.641L-19.395,39.642C-19.886,39.642 -20.279,40.064 -20.233,40.553C-19.639,46.782 -17.462,51.555 -13.701,54.873C-9.761,58.35 -5.194,60.088 0,60.088C4.173,60.088 7.672,59.139 10.501,57.237C13.184,55.435 15.221,53.027 16.611,50.013C16.748,49.714 17.042,49.518 17.371,49.518L30.44,49.518C31.004,49.518 31.417,50.067 31.244,50.603C29.298,56.616 25.722,61.679 20.516,65.791C14.999,70.151 8.159,72.329 0,72.329M0,12.101C-4.916,12.101 -9.274,13.561 -13.074,16.482C-16.664,19.239 -18.929,23.295 -19.874,28.653C-19.964,29.161 -19.561,29.627 -19.045,29.627L18.016,29.627C18.503,29.627 18.897,29.212 18.855,28.727C18.419,23.772 16.538,19.806 13.214,16.83C9.689,13.679 5.286,12.101 0,12.101" style="fill:rgb(54,76,160);fill-rule:nonzero;"/>
                </g>
                <g transform="matrix(0.908772,0,0,0.908772,2223.33,1942.42)">
                    <path d="M0,95.109L35.037,0.048C35.297,-0.659 35.971,-1.129 36.724,-1.129L50.349,-1.129C51.104,-1.129 51.778,-0.657 52.038,0.052L86.802,95.111C87.002,95.658 86.597,96.238 86.014,96.238L72.23,96.238C71.874,96.238 71.556,96.013 71.438,95.677L63.487,73.014C63.369,72.678 63.052,72.453 62.696,72.453L24.103,72.453C23.747,72.453 23.43,72.678 23.312,73.014L15.36,95.677C15.242,96.013 14.925,96.238 14.568,96.238L0.787,96.238C0.203,96.238 -0.202,95.657 0,95.109M28.868,60.769L57.93,60.769C58.509,60.769 58.914,60.196 58.721,59.65L44.19,18.629C43.926,17.884 42.872,17.884 42.609,18.629L28.077,59.65C27.884,60.196 28.289,60.769 28.868,60.769" style="fill:rgb(54,76,160);fill-rule:nonzero;"/>
                </g>
                <g transform="matrix(0.908772,0,0,0.908772,2309.41,1966.42)">
                    <path d="M0,68.983L0,1.669C0,1.206 0.375,0.831 0.839,0.831L12.451,0.831C12.883,0.831 13.245,1.159 13.286,1.589L14.32,12.387C14.364,12.849 14.97,12.985 15.208,12.586C17.55,8.662 20.664,5.507 24.55,3.125C28.659,0.606 33.591,-0.712 39.343,-0.83C39.811,-0.839 40.198,-0.455 40.198,0.013L40.198,13.762C40.198,14.225 39.822,14.6 39.359,14.6L36.165,14.6C32.083,14.6 28.444,15.275 25.245,16.618C22.046,17.963 19.494,20.234 17.595,23.434C15.693,26.633 14.744,31.062 14.744,36.717L14.744,68.983C14.744,69.446 14.368,69.822 13.905,69.822L0.839,69.822C0.375,69.822 0,69.446 0,68.983" style="fill:rgb(54,76,160);fill-rule:nonzero;"/>
                </g>
                <g transform="matrix(0.908772,0,0,0.908772,2380.32,1965.66)">
                    <path d="M0,72.329C-6.77,72.329 -12.821,70.799 -18.152,67.739C-23.485,64.678 -27.658,60.436 -30.671,55.012C-33.685,49.587 -35.191,43.306 -35.191,36.164C-35.191,29.025 -33.685,22.742 -30.671,17.317C-27.658,11.892 -23.485,7.65 -18.152,4.59C-12.821,1.53 -6.77,0 0,0C8.53,0 15.694,2.225 21.49,6.676C27.019,10.924 30.672,16.607 32.445,23.724C32.576,24.249 32.168,24.758 31.626,24.758L17.891,24.758C17.511,24.758 17.187,24.5 17.084,24.135C16.091,20.632 14.105,17.872 11.128,15.856C7.974,13.724 4.264,12.657 0,12.657C-3.617,12.657 -6.955,13.561 -10.015,15.369C-13.075,17.178 -15.533,19.82 -17.386,23.298C-19.243,26.775 -20.168,31.065 -20.168,36.164C-20.168,41.265 -19.243,45.553 -17.386,49.03C-15.533,52.508 -13.075,55.175 -10.015,57.028C-6.955,58.884 -3.617,59.81 0,59.81C4.264,59.81 7.974,58.745 11.128,56.611C14.108,54.595 16.094,51.79 17.087,48.198C17.188,47.831 17.514,47.57 17.895,47.57L31.633,47.57C32.172,47.57 32.58,48.076 32.452,48.6C30.759,55.545 27.129,61.183 21.56,65.513C15.718,70.058 8.53,72.329 0,72.329" style="fill:rgb(54,76,160);fill-rule:nonzero;"/>
                </g>
                <g transform="matrix(0.908772,0,0,0.908772,2376.07,1869.02)">
                    <path d="M0,38.094L-25.404,-6.405C-26.003,-7.454 -27.116,-8.104 -28.324,-8.11L-72.856,-8.327C-73.498,-8.33 -74.09,-8.675 -74.409,-9.234L-95.85,-46.792C-96.449,-47.84 -97.562,-48.49 -98.77,-48.496L-150.01,-48.745C-151.016,-48.75 -151.949,-48.218 -152.457,-47.349L-174.826,-9.036C-175.15,-8.481 -175.745,-8.142 -176.388,-8.145L-220.509,-8.359C-221.516,-8.364 -222.448,-7.832 -222.956,-6.962L-248.956,37.568C-249.463,38.437 -249.468,39.511 -248.969,40.385L-223.404,85.167C-222.905,86.042 -221.978,86.583 -220.971,86.588L-169.406,86.839C-168.399,86.844 -167.467,86.311 -166.959,85.442L-144.59,47.13C-144.266,46.575 -143.67,46.235 -143.028,46.238L-105.614,46.42C-104.972,46.423 -104.38,46.769 -104.061,47.327L-82.458,85.167C-81.959,86.042 -81.032,86.583 -80.025,86.588L-28.46,86.839C-27.454,86.844 -26.521,86.311 -26.014,85.442L-0.014,40.912C0.494,40.042 0.499,38.968 0,38.094M-162.887,-2.233L-144.294,-34.079C-143.969,-34.633 -143.374,-34.973 -142.732,-34.97L-105.856,-34.791C-105.213,-34.788 -104.621,-34.442 -104.303,-33.884L-86.02,-1.858C-85.714,-1.323 -85.713,-0.672 -86,-0.13L-104.669,31.846C-105.001,32.362 -105.568,32.68 -106.184,32.677L-143.06,32.498C-143.703,32.495 -144.295,32.149 -144.614,31.591L-162.896,-0.435C-163.214,-0.992 -163.211,-1.678 -162.887,-2.233M-156.528,40.326L-175.122,72.172C-175.446,72.727 -176.041,73.067 -176.684,73.064L-213.56,72.884C-214.202,72.881 -214.794,72.536 -215.113,71.977L-233.395,39.952C-233.714,39.394 -233.71,38.708 -233.387,38.153L-214.793,6.308C-214.469,5.753 -213.874,5.413 -213.231,5.416L-176.355,5.595C-175.713,5.599 -175.12,5.944 -174.802,6.502L-156.52,38.528C-156.201,39.086 -156.204,39.771 -156.528,40.326M-15.583,40.326L-34.177,72.172C-34.5,72.727 -35.096,73.067 -35.738,73.064L-72.614,72.884C-73.257,72.881 -73.849,72.536 -74.167,71.977L-92.45,39.952C-92.756,39.416 -92.757,38.766 -92.471,38.224L-73.801,6.248C-73.47,5.732 -72.903,5.413 -72.286,5.416L-35.409,5.595C-34.767,5.599 -34.175,5.944 -33.857,6.502L-15.574,38.528C-15.256,39.086 -15.259,39.771 -15.583,40.326" style="fill:rgb(54,76,160);fill-rule:nonzero;"/>
                </g>
            </g>
        </g>
    </g>
</svg>
